<svg width="366" height="152" viewBox="0 0 366 152" fill="none" xmlns="http://www.w3.org/2000/svg">
<path d="M315 0.5H51C23.1096 0.5 0.5 23.1096 0.5 51V101C0.5 128.89 23.1096 151.5 51 151.5H315C342.89 151.5 365.5 128.89 365.5 101V51C365.5 23.1096 342.89 0.5 315 0.5Z" fill="#CFC4B2"/>
<path d="M41.2 70.2H44.4V79.8H57.2V70.2H60.4V91H57.2V83H44.4V91H41.2V70.2ZM44.4 67H47.6V70.2H44.4V67ZM54 63.8V67H47.6V63.8H54ZM57.2 67V70.2H54V67H57.2ZM67.0659 63.8H84.6659V67H70.2659V75H84.6659V78.2H70.2659V87.8H84.6659V91H67.0659V63.8ZM84.6659 78.2H87.8659V87.8H84.6659V78.2ZM84.6659 67H87.8659V75H84.6659V67ZM99.856 87.8H112.656V91H99.856V87.8ZM99.856 63.8H112.656V67H99.856V63.8ZM99.856 70.2H96.6563V67H99.856V70.2ZM112.656 84.6H115.856V87.8H112.656V84.6ZM115.856 67V70.2H112.656V67H115.856ZM119.056 70.2V84.6H115.856V70.2H119.056ZM96.6563 84.6H93.4563V70.2H96.6563V84.6ZM96.6563 84.6H99.856V87.8H96.6563V84.6ZM128.267 63.8V84.6H125.067V63.8H128.267ZM131.467 84.6V87.8H128.267V84.6H131.467ZM141.067 87.8V91H131.467V87.8H141.067ZM147.467 63.8V84.6H144.267V63.8H147.467ZM144.267 87.8H141.067V84.6H144.267V87.8ZM161.056 67H151.456V63.8H173.856V67H164.256V91H161.056V67ZM186.434 70.2H189.634V79.8H202.434V70.2H205.634V91H202.434V83H189.634V91H186.434V70.2ZM189.634 67H192.834V70.2H189.634V67ZM199.234 63.8V67H192.834V63.8H199.234ZM202.434 67V70.2H199.234V67H202.434ZM212.3 63.8H228.3V67H215.5V76.6H228.3V79.8H225.1V83H221.9V79.8H215.5V91H212.3V63.8ZM231.5 67V76.6H228.3V67H231.5ZM228.3 87.8H231.5V91H228.3V87.8ZM225.1 83H228.3V87.8H225.1V83ZM244.689 67H235.089V63.8H257.489V67H247.889V91H244.689V67ZM261.753 63.8H264.953V91H261.753V63.8ZM287.63 67H290.83V71.8H287.63V67ZM274.83 63.8H287.63V67H274.83V63.8ZM274.83 73.4H271.63V67H274.83V73.4ZM274.83 73.4H281.23V76.6H274.83V73.4ZM281.23 76.6H287.63V79.8H281.23V76.6ZM290.83 79.8V87.8H287.63V79.8H290.83ZM287.63 91H274.83V87.8H287.63V91ZM271.63 83H274.83V87.8H271.63V83ZM303.634 67H294.034V63.8H316.434V67H306.834V91H303.634V67Z" fill="#141414"/>
</svg>
