<svg width="1176" height="193" viewBox="0 0 1176 193" fill="none" xmlns="http://www.w3.org/2000/svg">
<mask id="path-1-inside-1_226_82" fill="white">
<path d="M0.646873 128.8C9.71354 125.2 20.1802 121.6 32.0469 118L32.8469 131.2C23.1135 129.6 15.8469 126.2 11.0469 121C6.24687 115.8 3.84687 109.066 3.84687 100.8C3.84687 94.6665 5.18021 89.1331 7.84687 84.1998C10.6469 79.2665 14.5802 75.3998 19.6469 72.5998C24.7135 69.6665 30.5802 68.1998 37.2469 68.1998C41.6469 68.1998 45.9135 68.8665 50.0469 70.1998C54.3135 71.3998 57.9802 73.1331 61.0469 75.3998L58.6469 96.5998C55.7135 95.7998 52.9135 95.1998 50.2469 94.7998C47.5802 94.2665 44.5135 93.9998 41.0469 93.9998C34.7802 93.9998 30.0469 94.8665 26.8469 96.5998C23.7802 98.1998 22.2469 100.666 22.2469 104C22.2469 107.066 23.6469 109.533 26.4469 111.4C29.2469 113.133 33.5135 114 39.2469 114C42.8469 114 46.7802 113.666 51.0469 113C55.4469 112.2 60.7802 111.066 67.0469 109.6L70.4469 135C47.6469 139.8 26.7135 145.066 7.64687 150.8L0.646873 128.8Z"/>
<path d="M265.709 145.4C256.643 145.4 249.243 144.066 243.509 141.4C237.909 138.6 233.709 134.266 230.909 128.4C228.109 122.4 226.509 114.6 226.109 105L222.109 9.99981L249.509 0.799805L250.709 96.5998C250.843 100.466 251.443 103.466 252.509 105.6C253.576 107.733 255.376 109.266 257.909 110.2C260.576 111.133 264.309 111.6 269.109 111.6C271.776 111.6 273.776 113.4 275.109 117C276.443 120.6 277.109 124.933 277.109 130C277.109 134.666 275.976 138.4 273.709 141.2C271.576 144 268.909 145.4 265.709 145.4Z"/>
<path d="M395.694 145.4C393.694 145.4 392.16 144.066 391.094 141.4C390.027 138.6 389.494 134.466 389.494 129C389.494 125.933 389.96 123.066 390.894 120.4C391.694 117.733 392.827 115.6 394.294 114C395.76 112.4 397.36 111.6 399.094 111.6C404.294 111.6 408.827 111.466 412.694 111.2C416.56 110.933 420.427 110.533 424.294 110C424.56 101.2 424.76 92.4665 424.894 83.7998C425.027 82.0665 425.094 80.3998 425.094 78.7998L449.694 75.5998L448.894 85.7998C447.96 95.3998 446.894 103.4 445.694 109.8C444.627 116.066 443.227 121.333 441.494 125.6C438.694 132.533 433.56 137.6 426.094 140.8C418.76 143.866 408.627 145.4 395.694 145.4ZM465.694 145.4C458.227 145.4 450.894 143.933 443.694 141C436.627 137.933 430.894 133.133 426.494 126.6L440.894 106C444.494 108 448.894 109.466 454.094 110.4C459.294 111.2 464.294 111.6 469.094 111.6C471.36 111.6 472.96 113 473.894 115.8C474.827 118.466 475.294 122.466 475.294 127.8C475.294 132.066 474.294 136.066 472.294 139.8C470.294 143.533 468.094 145.4 465.694 145.4ZM425.494 192.6C419.094 186.866 412.694 181.133 406.294 175.4L423.094 155.6C426.294 158.266 432.627 163.8 442.094 172.2L425.494 192.6ZM452.094 192.6C445.694 186.866 439.294 181.133 432.894 175.4L449.694 155.6C452.894 158.266 459.227 163.8 468.694 172.2L452.094 192.6Z"/>
<path d="M660.616 145.4C653.016 145.4 646.216 144.533 640.216 142.8C634.349 141.066 629.416 138.4 625.416 134.8L638.216 105.2C641.282 107.066 644.749 108.6 648.616 109.8C652.616 111 658.282 111.6 665.616 111.6C668.682 111.6 671.549 111.466 674.216 111.2C676.882 110.8 679.349 110.266 681.616 109.6C682.282 105.733 682.949 100.333 683.616 93.3998C684.149 88.9998 684.616 84.6665 685.016 80.3998L703.216 79.5998C702.549 88.3998 701.749 96.1331 700.816 102.8C699.882 109.466 698.616 115.6 697.016 121.2C695.416 126.8 693.349 131.466 690.816 135.2C688.549 138.533 684.416 141.066 678.416 142.8C672.549 144.533 666.616 145.4 660.616 145.4ZM595.616 145.4C593.882 145.4 592.416 143.866 591.216 140.8C590.016 137.733 589.416 133.666 589.416 128.6C589.416 123.4 590.349 119.266 592.216 116.2C593.949 113.133 596.216 111.6 599.016 111.6C605.682 111.6 611.216 111.266 615.616 110.6C620.149 109.933 623.549 108.666 625.816 106.8C627.416 105.466 628.882 102.933 630.216 99.1998C631.549 95.3331 633.149 89.9998 635.016 83.1998L652.216 82.3998C650.216 92.7998 648.149 101.333 646.016 108C644.016 114.533 641.949 119.733 639.816 123.6C637.682 127.333 635.216 130.533 632.416 133.2C627.749 137.6 622.549 140.733 616.816 142.6C611.082 144.466 604.016 145.4 595.616 145.4ZM719.416 145.4C711.016 145.4 703.682 143.933 697.416 141C691.149 138.066 685.482 133.666 680.416 127.8L692.616 103C696.482 105.933 700.482 108.133 704.616 109.6C708.882 110.933 713.482 111.6 718.416 111.6C720.949 111.6 723.416 111.4 725.816 111C728.349 110.6 730.549 109.933 732.416 109C731.482 103.933 730.349 98.7331 729.016 93.3998C727.682 88.0665 726.216 82.5331 724.616 76.7998L746.016 67.7998C747.616 73.6665 748.749 79.5998 749.416 85.5998C750.216 91.4665 750.616 97.9331 750.616 105C750.616 116.466 747.816 126.066 742.216 133.8C736.616 141.533 729.016 145.4 719.416 145.4ZM694.416 36.1998C691.082 32.9998 687.682 29.8665 684.216 26.7998L677.816 20.5998L692.216 2.39981C696.482 6.13314 701.949 11.1998 708.616 17.5998L694.416 36.1998ZM683.016 65.1998C672.882 56.1331 667.016 50.8665 665.416 49.3998L680.816 30.9998C684.682 34.3331 688.482 37.6665 692.216 40.9998L698.216 46.3998L683.016 65.1998ZM707.416 65.1998C697.282 56.1331 691.416 50.8665 689.816 49.3998L705.216 30.9998C709.082 34.3331 712.882 37.6665 716.616 40.9998L722.616 46.3998L707.416 65.1998Z"/>
<path d="M902.581 142.8L900.781 9.99981L928.181 0.799805L928.781 106.8C928.781 114.266 927.915 121.266 926.181 127.8C924.581 134.333 922.381 140 919.581 144.8L902.581 142.8Z"/>
<path d="M1176 75.626C1176 112.975 1143.76 143.252 1104 143.252C1064.24 143.252 1032 112.975 1032 75.626C1032 38.2771 1064.24 7.99981 1104 7.99981C1143.76 7.99981 1176 38.2771 1176 75.626Z"/>
</mask>
<path d="M1128.07 108.857C1129.45 108.907 1130.61 107.828 1130.66 106.448L1131.47 83.9626C1131.52 82.5828 1130.44 81.4242 1129.06 81.3748C1127.68 81.3254 1126.52 82.404 1126.47 83.7838L1125.75 103.771L1105.77 103.056C1104.39 103.007 1103.23 104.085 1103.18 105.465C1103.13 106.845 1104.21 108.003 1105.59 108.053L1128.07 108.857ZM1078.62 56.806L1126.33 108.062L1129.99 104.655L1082.28 53.3992L1078.62 56.806ZM0.646873 128.8L-1.19829 124.153L-5.53132 125.873L-4.11776 130.316L0.646873 128.8ZM32.0469 118L37.0377 117.697L36.6547 111.377L30.5953 113.215L32.0469 118ZM32.8469 131.2L32.0358 136.134L38.2166 137.15L37.8377 130.897L32.8469 131.2ZM11.0469 121L7.37286 124.391L11.0469 121ZM7.84687 84.1998L3.49844 81.7318L3.47293 81.7767L3.44834 81.8222L7.84687 84.1998ZM19.6469 72.5998L22.0653 76.976L22.1089 76.9519L22.1521 76.9269L19.6469 72.5998ZM50.0469 70.1998L48.5119 74.9583L48.602 74.9874L48.6931 75.0131L50.0469 70.1998ZM61.0469 75.3998L66.0151 75.9622L66.3398 73.0944L64.0188 71.3789L61.0469 75.3998ZM58.6469 96.5998L57.3313 101.424L62.959 102.958L63.6151 97.1623L58.6469 96.5998ZM50.2469 94.7998L49.2663 99.7027L49.3852 99.7265L49.5052 99.7445L50.2469 94.7998ZM26.8469 96.5998L29.1597 101.033L29.1941 101.015L29.2283 100.996L26.8469 96.5998ZM26.4469 111.4L23.6734 115.56L23.7435 115.607L23.8151 115.651L26.4469 111.4ZM51.0469 113L51.8188 117.94L51.8802 117.93L51.9413 117.919L51.0469 113ZM67.0469 109.6L72.0027 108.936L71.2717 103.476L65.9075 104.731L67.0469 109.6ZM70.4469 135L71.4769 139.893L76.0184 138.936L75.4027 134.336L70.4469 135ZM7.64687 150.8L2.88225 152.316L4.37427 157.005L9.08669 155.588L7.64687 150.8ZM243.509 141.4L241.273 145.872L241.337 145.904L241.401 145.933L243.509 141.4ZM230.909 128.4L226.378 130.514L226.388 130.534L226.397 130.553L230.909 128.4ZM226.109 105L231.105 104.792L231.105 104.789L226.109 105ZM222.109 9.99981L220.518 5.25986L216.956 6.4559L217.114 10.2101L222.109 9.99981ZM249.509 0.799805L254.509 0.737179L254.423 -6.12436L247.918 -3.94014L249.509 0.799805ZM250.709 96.5998L245.71 96.6624L245.71 96.7173L245.712 96.7721L250.709 96.5998ZM257.909 110.2L256.181 114.892L256.219 114.906L256.258 114.919L257.909 110.2ZM275.109 117L279.798 115.263L279.798 115.263L275.109 117ZM273.709 141.2L269.823 138.054L269.777 138.111L269.732 138.17L273.709 141.2ZM391.094 141.4L386.421 143.18L386.436 143.218L386.451 143.257L391.094 141.4ZM390.894 120.4L395.613 122.052L395.65 121.945L395.683 121.837L390.894 120.4ZM394.294 114L390.608 110.621L390.608 110.621L394.294 114ZM412.694 111.2L413.038 116.188L412.694 111.2ZM424.294 110L424.977 114.953L429.163 114.375L429.291 110.151L424.294 110ZM424.894 83.7998L419.908 83.4163L419.897 83.5694L419.894 83.7229L424.894 83.7998ZM425.094 78.7998L424.449 73.8416L420.094 74.4081V78.7998H425.094ZM449.694 75.5998L454.678 75.9908L455.16 69.8466L449.049 70.6416L449.694 75.5998ZM448.894 85.7998L453.87 86.2836L453.875 86.2372L453.878 86.1908L448.894 85.7998ZM445.694 109.8L440.779 108.878L440.772 108.92L440.765 108.961L445.694 109.8ZM441.494 125.6L436.861 123.718L436.858 123.727L441.494 125.6ZM426.094 140.8L428.023 145.413L428.043 145.404L428.063 145.396L426.094 140.8ZM443.694 141L441.703 145.587L441.755 145.609L441.807 145.63L443.694 141ZM426.494 126.6L422.396 123.735L420.43 126.547L422.347 129.393L426.494 126.6ZM440.894 106L443.322 101.629L439.38 99.4388L436.796 103.135L440.894 106ZM454.094 110.4L453.21 115.321L453.272 115.332L453.333 115.342L454.094 110.4ZM473.894 115.8L469.15 117.381L469.162 117.416L469.174 117.452L473.894 115.8ZM472.294 139.8L476.701 142.161L476.701 142.161L472.294 139.8ZM425.494 192.6L422.157 196.324L426.063 199.822L429.372 195.756L425.494 192.6ZM406.294 175.4L402.481 172.165L399.332 175.876L402.958 179.124L406.294 175.4ZM423.094 155.6L426.295 151.759L422.487 148.586L419.281 152.365L423.094 155.6ZM442.094 172.2L445.972 175.356L448.996 171.64L445.412 168.46L442.094 172.2ZM452.094 192.6L448.758 196.324L452.663 199.822L455.972 195.756L452.094 192.6ZM432.894 175.4L429.081 172.165L425.932 175.876L429.558 179.124L432.894 175.4ZM449.694 155.6L452.895 151.759L449.088 148.586L445.881 152.365L449.694 155.6ZM468.694 172.2L472.572 175.356L475.596 171.64L472.012 168.46L468.694 172.2ZM640.216 142.8L638.799 147.595L638.813 147.599L638.828 147.603L640.216 142.8ZM625.416 134.8L620.826 132.815L619.4 136.113L622.071 138.516L625.416 134.8ZM638.216 105.2L640.815 100.929L635.907 97.9411L633.626 103.215L638.216 105.2ZM648.616 109.8L647.134 114.575L647.156 114.582L647.179 114.589L648.616 109.8ZM674.216 111.2L674.713 116.175L674.836 116.163L674.957 116.144L674.216 111.2ZM681.616 109.6L683.026 114.397L686.014 113.518L686.543 110.449L681.616 109.6ZM683.616 93.3998L678.652 92.7982L678.645 92.8596L678.639 92.9212L683.616 93.3998ZM685.016 80.3998L684.796 75.4046L680.444 75.5959L680.037 79.9331L685.016 80.3998ZM703.216 79.5998L708.201 79.9775L708.627 74.3571L702.996 74.6046L703.216 79.5998ZM700.816 102.8L695.864 102.107L695.864 102.107L700.816 102.8ZM697.016 121.2L692.208 119.826L692.208 119.826L697.016 121.2ZM690.816 135.2L694.95 138.011L694.953 138.007L690.816 135.2ZM678.416 142.8L677.028 137.996L677.013 138L676.999 138.005L678.416 142.8ZM592.216 116.2L596.487 118.8L596.529 118.73L596.568 118.66L592.216 116.2ZM615.616 110.6L614.888 105.653L614.877 105.655L614.867 105.656L615.616 110.6ZM625.816 106.8L628.994 110.659L629.005 110.65L629.017 110.641L625.816 106.8ZM630.216 99.1998L634.924 100.881L634.934 100.856L634.942 100.83L630.216 99.1998ZM635.016 83.1998L634.783 78.2052L631.155 78.3739L630.194 81.8762L635.016 83.1998ZM652.216 82.3998L657.126 83.344L658.324 77.1103L651.983 77.4052L652.216 82.3998ZM646.016 108L641.254 106.476L641.244 106.506L641.235 106.536L646.016 108ZM639.816 123.6L644.157 126.081L644.175 126.048L644.194 126.015L639.816 123.6ZM632.416 133.2L635.846 136.838L635.855 136.829L635.864 136.821L632.416 133.2ZM616.816 142.6L618.364 147.354L616.816 142.6ZM697.416 141L695.296 145.528L695.296 145.528L697.416 141ZM680.416 127.8L675.929 125.593L674.468 128.563L676.631 131.068L680.416 127.8ZM692.616 103L695.638 99.0164L690.806 95.3511L688.129 100.793L692.616 103ZM704.616 109.6L702.944 114.312L703.033 114.344L703.124 114.372L704.616 109.6ZM725.816 111L725.036 106.061L725.015 106.064L724.994 106.068L725.816 111ZM732.416 109L734.652 113.472L738.014 111.791L737.333 108.094L732.416 109ZM724.616 76.7998L722.677 72.1908L718.615 73.8992L719.8 78.1438L724.616 76.7998ZM746.016 67.7998L750.839 66.4842L749.338 60.9784L744.077 63.1908L746.016 67.7998ZM749.416 85.5998L744.446 86.152L744.453 86.2138L744.461 86.2754L749.416 85.5998ZM742.216 133.8L738.166 130.867L738.166 130.867L742.216 133.8ZM694.416 36.1998L690.953 39.8067L694.992 43.6844L698.39 39.2339L694.416 36.1998ZM684.216 26.7998L680.737 30.391L680.818 30.4698L680.903 30.5448L684.216 26.7998ZM677.816 20.5998L673.895 17.4974L671.088 21.0441L674.337 24.191L677.816 20.5998ZM692.216 2.39981L695.508 -1.36308L691.554 -4.82266L688.294 -0.702599L692.216 2.39981ZM708.616 17.5998L712.59 20.6339L715.299 17.085L712.078 13.9929L708.616 17.5998ZM683.016 65.1998L679.682 68.926L683.599 72.431L686.904 68.3434L683.016 65.1998ZM665.416 49.3998L661.581 46.1907L658.514 49.8559L662.037 53.0856L665.416 49.3998ZM680.816 30.9998L684.08 27.2128L680.238 23.9001L676.981 27.7907L680.816 30.9998ZM692.216 40.9998L695.56 37.2833L695.553 37.2767L695.546 37.2701L692.216 40.9998ZM698.216 46.3998L702.104 49.5434L705.085 45.8557L701.56 42.6833L698.216 46.3998ZM707.416 65.1998L704.082 68.926L707.999 72.431L711.304 68.3434L707.416 65.1998ZM689.816 49.3998L685.981 46.1907L682.914 49.8559L686.437 53.0856L689.816 49.3998ZM705.216 30.9998L708.48 27.2128L704.638 23.9001L701.381 27.7907L705.216 30.9998ZM716.616 40.9998L719.96 37.2833L719.953 37.2767L719.946 37.2701L716.616 40.9998ZM722.616 46.3998L726.504 49.5434L729.485 45.8557L725.96 42.6833L722.616 46.3998ZM902.581 142.8L897.582 142.868L897.641 147.253L901.997 147.766L902.581 142.8ZM900.781 9.99981L899.19 5.25986L895.732 6.42076L895.782 10.0676L900.781 9.99981ZM928.181 0.799805L933.181 0.771502L933.142 -6.14019L926.59 -3.94014L928.181 0.799805ZM928.781 106.8H933.781V106.786L933.781 106.772L928.781 106.8ZM926.181 127.8L921.348 126.518L921.336 126.564L921.325 126.61L926.181 127.8ZM919.581 144.8L918.997 149.766L922.25 150.148L923.9 147.319L919.581 144.8ZM2.49204 133.447C11.4004 129.91 21.7311 126.354 33.4984 122.784L30.5953 113.215C18.6293 116.845 8.02668 120.49 -1.19829 124.153L2.49204 133.447ZM27.056 118.302L27.856 131.502L37.8377 130.897L37.0377 117.697L27.056 118.302ZM33.6579 126.266C24.5988 124.777 18.5172 121.721 14.7209 117.608L7.37286 124.391C13.1766 130.679 21.6282 134.423 32.0358 136.134L33.6579 126.266ZM14.7209 117.608C10.9149 113.485 8.84687 108.035 8.84687 100.8H-1.15313C-1.15313 110.098 1.57884 118.114 7.37286 124.391L14.7209 117.608ZM8.84687 100.8C8.84687 95.4171 10.0097 90.7135 12.2454 86.5774L3.44834 81.8222C0.350729 87.5528 -1.15313 93.9159 -1.15313 100.8H8.84687ZM12.1953 86.6678C14.5305 82.5535 17.7882 79.3397 22.0653 76.976L17.2284 68.2236C11.3723 71.4599 6.76328 75.9794 3.49844 81.7318L12.1953 86.6678ZM22.1521 76.9269C26.3567 74.4927 31.3358 73.1998 37.2469 73.1998V63.1998C29.8246 63.1998 23.0704 64.8403 17.1417 68.2727L22.1521 76.9269ZM37.2469 73.1998C41.1327 73.1998 44.881 73.7871 48.5119 74.9583L51.5819 65.4413C46.946 63.9458 42.1611 63.1998 37.2469 63.1998V73.1998ZM48.6931 75.0131C52.4699 76.0753 55.5673 77.5673 58.0749 79.4207L64.0188 71.3789C60.3931 68.699 56.1572 66.7243 51.4006 65.3866L48.6931 75.0131ZM56.0786 74.8374L53.6786 96.0374L63.6151 97.1623L66.0151 75.9622L56.0786 74.8374ZM59.9625 91.776C56.8637 90.9309 53.8713 90.2875 50.9886 89.8551L49.5052 99.7445C51.9558 100.112 54.5633 100.669 57.3313 101.424L59.9625 91.776ZM51.2275 89.8969C48.1641 89.2842 44.7578 88.9998 41.0469 88.9998V98.9998C44.2692 98.9998 46.9963 99.2487 49.2663 99.7027L51.2275 89.8969ZM41.0469 88.9998C34.4709 88.9998 28.7486 89.8833 24.4655 92.2033L29.2283 100.996C31.3452 99.8496 35.0895 98.9998 41.0469 98.9998V88.9998ZM24.534 92.1669C22.3596 93.3014 20.4727 94.8831 19.1504 97.0101C17.8219 99.1474 17.2469 101.541 17.2469 104H27.2469C27.2469 103.125 27.4385 102.619 27.6433 102.289C27.8544 101.95 28.2675 101.498 29.1597 101.033L24.534 92.1669ZM17.2469 104C17.2469 108.922 19.6422 112.873 23.6734 115.56L29.2204 107.24C27.6515 106.194 27.2469 105.211 27.2469 104H17.2469ZM23.8151 115.651C27.7966 118.116 33.187 119 39.2469 119V109C33.8401 109 30.6972 108.15 29.0786 107.148L23.8151 115.651ZM39.2469 119C43.1503 119 47.3454 118.639 51.8188 117.94L50.275 108.06C46.215 108.694 42.5434 109 39.2469 109V119ZM51.9413 117.919C56.4503 117.099 61.8703 115.946 68.1863 114.468L65.9075 104.731C59.6901 106.186 54.4435 107.3 50.1524 108.08L51.9413 117.919ZM62.0911 110.263L65.4911 135.663L75.4027 134.336L72.0027 108.936L62.0911 110.263ZM69.4168 130.107C46.5014 134.931 25.4292 140.232 6.20706 146.012L9.08669 155.588C27.9979 149.901 48.7924 144.668 71.4769 139.893L69.4168 130.107ZM12.4115 149.284L5.4115 127.284L-4.11776 130.316L2.88225 152.316L12.4115 149.284ZM265.709 140.4C257.078 140.4 250.469 139.122 245.618 136.866L241.401 145.933C248.017 149.011 256.207 150.4 265.709 150.4V140.4ZM245.745 136.928C241.181 134.646 237.762 131.15 235.422 126.246L226.397 130.553C229.657 137.383 234.637 142.554 241.273 145.872L245.745 136.928ZM235.44 126.285C233.016 121.09 231.489 114.005 231.105 104.792L221.114 105.208C221.53 115.195 223.203 123.71 226.378 130.514L235.44 126.285ZM231.105 104.789L227.105 9.78947L217.114 10.2101L221.114 105.21L231.105 104.789ZM223.701 14.7398L251.101 5.53975L247.918 -3.94014L220.518 5.25986L223.701 14.7398ZM244.51 0.86243L245.71 96.6624L255.709 96.5372L254.509 0.737179L244.51 0.86243ZM245.712 96.7721C245.857 100.963 246.511 104.783 248.037 107.836L256.982 103.364C256.375 102.15 255.829 99.9704 255.706 96.4275L245.712 96.7721ZM248.037 107.836C249.749 111.259 252.624 113.581 256.181 114.892L259.638 105.508C258.128 104.952 257.403 104.207 256.982 103.364L248.037 107.836ZM256.258 114.919C259.699 116.124 264.083 116.6 269.109 116.6V106.6C264.536 106.6 261.453 106.143 259.561 105.481L256.258 114.919ZM269.109 116.6C269.202 116.6 269.213 116.613 269.185 116.602C269.158 116.592 269.183 116.593 269.265 116.666C269.461 116.843 269.923 117.392 270.421 118.736L279.798 115.263C278.963 113.008 277.757 110.856 275.954 109.233C274.045 107.515 271.69 106.6 269.109 106.6V116.6ZM270.421 118.736C271.494 121.634 272.109 125.347 272.109 130H282.109C282.109 124.519 281.391 119.565 279.798 115.263L270.421 118.736ZM272.109 130C272.109 133.864 271.18 136.378 269.823 138.054L277.596 144.346C280.772 140.422 282.109 135.469 282.109 130H272.109ZM269.732 138.17C268.436 139.871 267.178 140.4 265.709 140.4V150.4C270.641 150.4 274.716 148.128 277.687 144.23L269.732 138.17ZM395.694 140.4C395.761 140.4 395.891 140.413 396.047 140.472C396.201 140.53 396.295 140.601 396.325 140.627C396.347 140.646 396.288 140.601 396.173 140.425C396.058 140.248 395.905 139.965 395.736 139.543L386.451 143.257C387.886 146.842 390.767 150.4 395.694 150.4V140.4ZM395.766 139.62C395.027 137.679 394.494 134.275 394.494 129H384.494C384.494 134.658 385.028 139.521 386.421 143.18L395.766 139.62ZM394.494 129C394.494 126.448 394.881 124.144 395.613 122.052L386.174 118.748C385.04 121.989 384.494 125.419 384.494 129H394.494ZM395.683 121.837C396.325 119.695 397.145 118.288 397.98 117.378L390.608 110.621C388.509 112.911 387.062 115.772 386.105 118.963L395.683 121.837ZM397.98 117.378C398.386 116.935 398.678 116.748 398.83 116.672C398.959 116.608 399.029 116.6 399.094 116.6V106.6C395.621 106.6 392.766 108.267 390.608 110.621L397.98 117.378ZM399.094 116.6C404.373 116.6 409.026 116.465 413.038 116.188L412.35 106.212C408.629 106.468 404.215 106.6 399.094 106.6V116.6ZM413.038 116.188C417.019 115.913 420.998 115.502 424.977 114.953L423.611 105.047C419.856 105.565 416.102 105.953 412.35 106.212L413.038 116.188ZM429.291 110.151C429.559 101.327 429.759 92.5686 429.893 83.8767L419.894 83.7229C419.761 92.3643 419.562 101.073 419.296 109.848L429.291 110.151ZM429.879 84.1833C430.021 82.3331 430.094 80.5381 430.094 78.7998H420.094C420.094 80.2615 420.033 81.7998 419.908 83.4163L429.879 84.1833ZM425.739 83.758L450.339 80.558L449.049 70.6416L424.449 73.8416L425.739 83.758ZM444.709 75.2089L443.909 85.4089L453.878 86.1908L454.678 75.9908L444.709 75.2089ZM443.917 85.316C442.992 94.8318 441.943 102.674 440.779 108.878L450.608 110.721C451.845 104.126 452.929 95.9678 453.87 86.2836L443.917 85.316ZM440.765 108.961C439.738 114.995 438.418 119.887 436.861 123.718L446.126 127.482C448.036 122.78 449.517 117.138 450.623 110.639L440.765 108.961ZM436.858 123.727C434.597 129.325 430.493 133.475 424.124 136.204L428.063 145.396C436.628 141.725 442.79 135.742 446.13 127.472L436.858 123.727ZM424.165 136.187C417.707 138.888 408.329 140.4 395.694 140.4V150.4C408.925 150.4 419.814 148.845 428.023 145.413L424.165 136.187ZM465.694 140.4C458.901 140.4 452.206 139.069 445.58 136.369L441.807 145.63C449.581 148.797 457.554 150.4 465.694 150.4V140.4ZM445.684 136.413C439.513 133.735 434.521 129.568 430.641 123.807L422.347 129.393C427.267 136.699 433.741 142.131 441.703 145.587L445.684 136.413ZM430.592 129.464L444.992 108.864L436.796 103.135L422.396 123.735L430.592 129.464ZM438.466 110.371C442.661 112.701 447.614 114.317 453.21 115.321L454.977 105.478C450.173 104.616 446.327 103.298 443.322 101.629L438.466 110.371ZM453.333 115.342C458.761 116.177 464.016 116.6 469.094 116.6V106.6C464.571 106.6 459.826 106.223 454.854 105.458L453.333 115.342ZM469.094 116.6C469.139 116.6 469.082 116.605 468.967 116.564C468.846 116.52 468.752 116.457 468.701 116.413C468.622 116.343 468.861 116.512 469.15 117.381L478.637 114.219C477.994 112.288 476.966 110.357 475.286 108.887C473.511 107.334 471.351 106.6 469.094 106.6V116.6ZM469.174 117.452C469.823 119.305 470.294 122.622 470.294 127.8H480.294C480.294 122.311 479.831 117.627 478.613 114.148L469.174 117.452ZM470.294 127.8C470.294 131.249 469.494 134.437 467.886 137.439L476.701 142.161C479.093 137.696 480.294 132.884 480.294 127.8H470.294ZM467.886 137.439C467.056 138.988 466.362 139.803 465.909 140.187C465.522 140.516 465.481 140.4 465.694 140.4V150.4C471.032 150.4 474.513 146.246 476.701 142.161L467.886 137.439ZM428.83 188.876C422.43 183.142 416.03 177.409 409.63 171.676L402.958 179.124C409.357 184.857 415.758 190.591 422.157 196.324L428.83 188.876ZM410.106 178.635L426.906 158.835L419.281 152.365L402.481 172.165L410.106 178.635ZM419.893 159.441C423.023 162.049 429.298 167.531 438.775 175.94L445.412 168.46C435.956 160.069 429.564 154.483 426.295 151.759L419.893 159.441ZM438.216 169.044L421.615 189.444L429.372 195.756L445.972 175.356L438.216 169.044ZM455.43 188.876C449.03 183.142 442.63 177.409 436.23 171.676L429.558 179.124C435.958 184.857 442.358 190.591 448.758 196.324L455.43 188.876ZM436.706 178.635L453.506 158.835L445.881 152.365L429.081 172.165L436.706 178.635ZM446.493 159.441C449.623 162.049 455.898 167.531 465.375 175.94L472.012 168.46C462.556 160.069 456.164 154.483 452.895 151.759L446.493 159.441ZM464.816 169.044L448.216 189.444L455.972 195.756L472.572 175.356L464.816 169.044ZM660.616 140.4C653.387 140.4 647.067 139.575 641.603 137.996L638.828 147.603C645.364 149.492 652.644 150.4 660.616 150.4V140.4ZM641.632 138.005C636.383 136.454 632.135 134.12 628.76 131.083L622.071 138.516C626.696 142.679 632.315 145.679 638.799 147.595L641.632 138.005ZM630.005 136.784L642.805 107.184L633.626 103.215L620.826 132.815L630.005 136.784ZM635.616 109.471C639.074 111.576 642.924 113.269 647.134 114.575L650.098 105.024C646.574 103.931 643.49 102.557 640.815 100.929L635.616 109.471ZM647.179 114.589C651.869 115.996 658.104 116.6 665.616 116.6V106.6C658.461 106.6 653.362 106.004 650.052 105.011L647.179 114.589ZM665.616 116.6C668.825 116.6 671.86 116.46 674.713 116.175L673.718 106.225C671.238 106.473 668.539 106.6 665.616 106.6V116.6ZM674.957 116.144C677.819 115.715 680.512 115.136 683.026 114.397L680.205 104.803C678.186 105.397 675.945 105.884 673.474 106.255L674.957 116.144ZM686.543 110.449C687.241 106.401 687.922 100.857 688.593 93.8784L678.639 92.9212C677.976 99.8095 677.324 105.066 676.688 108.75L686.543 110.449ZM688.579 94.0015C689.118 89.5581 689.589 85.1797 689.994 80.8665L680.037 79.9331C679.642 84.1532 679.18 88.4415 678.652 92.7982L688.579 94.0015ZM685.235 85.395L703.435 84.595L702.996 74.6046L684.796 75.4046L685.235 85.395ZM698.23 79.2221C697.569 87.9469 696.779 95.571 695.864 102.107L705.767 103.493C706.719 96.6953 707.529 88.8527 708.201 79.9775L698.23 79.2221ZM695.864 102.107C694.958 108.578 693.735 114.481 692.208 119.826L701.823 122.573C703.496 116.719 704.807 110.355 705.767 103.493L695.864 102.107ZM692.208 119.826C690.714 125.056 688.841 129.205 686.678 132.392L694.953 138.007C697.857 133.728 700.118 128.543 701.823 122.573L692.208 119.826ZM686.681 132.388C685.345 134.352 682.492 136.418 677.028 137.996L679.803 147.603C686.339 145.715 691.753 142.714 694.95 138.011L686.681 132.388ZM676.999 138.005C671.583 139.605 666.127 140.4 660.616 140.4V150.4C667.105 150.4 673.515 149.461 679.832 147.595L676.999 138.005ZM595.616 140.4C595.948 140.4 596.268 140.48 596.526 140.603C596.765 140.718 596.858 140.825 596.829 140.794C596.795 140.759 596.673 140.619 596.491 140.305C596.311 139.994 596.1 139.561 595.872 138.978L586.559 142.622C587.28 144.463 588.239 146.281 589.602 147.706C591.053 149.222 593.088 150.4 595.616 150.4V140.4ZM595.872 138.978C594.987 136.718 594.416 133.343 594.416 128.6H584.416C584.416 133.99 585.044 138.749 586.559 142.622L595.872 138.978ZM594.416 128.6C594.416 123.929 595.264 120.807 596.487 118.8L587.945 113.6C585.433 117.726 584.416 122.87 584.416 128.6H594.416ZM596.568 118.66C597.682 116.69 598.503 116.6 599.016 116.6V106.6C593.929 106.6 590.216 109.576 587.863 113.74L596.568 118.66ZM599.016 116.6C605.823 116.6 611.627 116.261 616.365 115.543L614.867 105.656C610.804 106.272 605.542 106.6 599.016 106.6V116.6ZM616.343 115.547C621.315 114.815 625.735 113.343 628.994 110.659L622.637 102.94C621.363 103.99 618.983 105.051 614.888 105.653L616.343 115.547ZM629.017 110.641C631.683 108.419 633.518 104.82 634.924 100.881L625.507 97.5181C624.247 101.046 623.149 102.514 622.615 102.959L629.017 110.641ZM634.942 100.83C636.327 96.8154 637.959 91.3644 639.837 84.5234L630.194 81.8762C628.339 88.6352 626.771 93.8509 625.489 97.5699L634.942 100.83ZM635.248 88.1944L652.448 87.3944L651.983 77.4052L634.783 78.2052L635.248 88.1944ZM647.306 81.4556C645.326 91.748 643.304 100.069 641.254 106.476L650.778 109.524C652.994 102.597 655.105 93.8516 657.126 83.344L647.306 81.4556ZM641.235 106.536C639.287 112.898 637.34 117.737 635.438 121.184L644.194 126.015C646.558 121.729 648.744 116.169 650.797 109.463L641.235 106.536ZM635.474 121.119C633.555 124.478 631.379 127.282 628.967 129.579L635.864 136.821C639.052 133.784 641.809 130.189 644.157 126.081L635.474 121.119ZM628.986 129.562C624.821 133.488 620.255 136.222 615.268 137.845L618.364 147.354C624.843 145.244 630.677 141.711 635.846 136.838L628.986 129.562ZM615.268 137.845C610.188 139.499 603.68 140.4 595.616 140.4V150.4C604.351 150.4 611.977 149.434 618.364 147.354L615.268 137.845ZM719.416 140.4C711.594 140.4 705.012 139.035 699.535 136.471L695.296 145.528C702.353 148.831 710.437 150.4 719.416 150.4V140.4ZM699.535 136.471C693.979 133.87 688.862 129.93 684.2 124.532L676.631 131.068C682.103 137.403 688.319 142.263 695.296 145.528L699.535 136.471ZM684.902 130.007L697.102 105.207L688.129 100.793L675.929 125.593L684.902 130.007ZM689.594 106.983C693.827 110.195 698.277 112.656 702.944 114.312L706.288 104.888C702.688 103.61 699.138 101.672 695.638 99.0164L689.594 106.983ZM703.124 114.372C707.921 115.871 713.028 116.6 718.416 116.6V106.6C713.936 106.6 709.844 105.995 706.107 104.827L703.124 114.372ZM718.416 116.6C721.213 116.6 723.955 116.379 726.638 115.932L724.994 106.068C722.876 106.421 720.685 106.6 718.416 106.6V116.6ZM726.595 115.939C729.524 115.476 732.235 114.68 734.652 113.472L730.18 104.528C728.862 105.186 727.174 105.723 725.036 106.061L726.595 115.939ZM737.333 108.094C736.379 102.918 735.223 97.6154 733.866 92.1871L724.165 94.6125C725.475 99.8509 726.585 104.948 727.498 109.906L737.333 108.094ZM733.866 92.1871C732.521 86.8064 731.043 81.2292 729.432 75.4558L719.8 78.1438C721.388 83.8371 722.843 89.3265 724.165 94.6125L733.866 92.1871ZM726.554 81.4088L747.954 72.4088L744.077 63.1908L722.677 72.1908L726.554 81.4088ZM741.192 69.1154C742.724 74.7336 743.808 80.4117 744.446 86.152L754.385 85.0477C753.69 78.7879 752.507 72.5994 750.839 66.4842L741.192 69.1154ZM744.461 86.2754C745.226 91.8803 745.616 98.1173 745.616 105H755.616C755.616 97.7489 755.205 91.0527 754.37 84.9242L744.461 86.2754ZM745.616 105C745.616 115.63 743.032 124.147 738.166 130.867L746.265 136.732C752.599 127.986 755.616 117.303 755.616 105H745.616ZM738.166 130.867C733.512 137.294 727.423 140.4 719.416 140.4V150.4C730.609 150.4 739.719 145.773 746.265 136.732L738.166 130.867ZM697.878 32.5929C694.496 29.3458 691.046 26.1664 687.528 23.0548L680.903 30.5448C684.319 33.5665 687.669 36.6539 690.953 39.8067L697.878 32.5929ZM687.695 23.2086L681.295 17.0086L674.337 24.191L680.737 30.391L687.695 23.2086ZM681.737 23.7022L696.137 5.50221L688.294 -0.702599L673.895 17.4974L681.737 23.7022ZM688.923 6.16269C693.107 9.82399 698.512 14.8314 705.153 21.2067L712.078 13.9929C705.386 7.56818 699.857 2.4423 695.508 -1.36308L688.923 6.16269ZM704.641 14.5657L690.441 33.1657L698.39 39.2339L712.59 20.6339L704.641 14.5657ZM686.35 61.4736C676.202 52.3939 670.366 47.1546 668.794 45.714L662.037 53.0856C663.665 54.5784 669.563 59.8724 679.682 68.926L686.35 61.4736ZM669.25 52.6089L684.65 34.2089L676.981 27.7907L661.581 46.1907L669.25 52.6089ZM677.551 34.7869C681.396 38.1016 685.174 41.4158 688.886 44.7295L695.546 37.2701C691.79 33.9171 687.969 30.5647 684.08 27.2128L677.551 34.7869ZM688.871 44.7163L694.871 50.1163L701.56 42.6833L695.56 37.2833L688.871 44.7163ZM694.327 43.2562L679.127 62.0562L686.904 68.3434L702.104 49.5434L694.327 43.2562ZM710.75 61.4736C700.602 52.3939 694.766 47.1546 693.194 45.714L686.437 53.0856C688.065 54.5783 693.963 59.8724 704.082 68.926L710.75 61.4736ZM693.65 52.6089L709.05 34.2089L701.381 27.7907L685.981 46.1907L693.65 52.6089ZM701.951 34.7869C705.796 38.1016 709.574 41.4159 713.286 44.7295L719.946 37.2701C716.19 33.9171 712.368 30.5646 708.48 27.2128L701.951 34.7869ZM713.271 44.7163L719.271 50.1163L725.96 42.6833L719.96 37.2833L713.271 44.7163ZM718.727 43.2562L703.527 62.0562L711.304 68.3434L726.504 49.5434L718.727 43.2562ZM907.581 142.732L905.781 9.93204L895.782 10.0676L897.582 142.868L907.581 142.732ZM902.373 14.7398L929.773 5.53975L926.59 -3.94014L899.19 5.25986L902.373 14.7398ZM923.181 0.828108L923.781 106.828L933.781 106.772L933.181 0.771502L923.181 0.828108ZM923.781 106.8C923.781 113.878 922.96 120.444 921.348 126.518L931.014 129.082C932.869 122.089 933.781 114.655 933.781 106.8H923.781ZM921.325 126.61C919.816 132.772 917.776 137.972 915.262 142.28L923.9 147.319C926.987 142.027 929.347 135.895 931.038 128.989L921.325 126.61ZM920.165 139.834L903.165 137.834L901.997 147.766L918.997 149.766L920.165 139.834ZM1171 75.626C1171 109.923 1141.3 138.252 1104 138.252V148.252C1146.23 148.252 1181 116.027 1181 75.626H1171ZM1104 138.252C1066.7 138.252 1037 109.923 1037 75.626H1027C1027 116.027 1061.77 148.252 1104 148.252V138.252ZM1037 75.626C1037 41.3291 1066.7 12.9998 1104 12.9998V2.99981C1061.77 2.99981 1027 35.2251 1027 75.626H1037ZM1104 12.9998C1141.3 12.9998 1171 41.3291 1171 75.626H1181C1181 35.2251 1146.23 2.99981 1104 2.99981V12.9998Z" fill="white" mask="url(#path-1-inside-1_226_82)"/>
</svg>
