<svg width="929" height="193" viewBox="0 0 929 193" fill="none" xmlns="http://www.w3.org/2000/svg">
<path d="M0.646875 128.8C9.71354 125.2 20.1802 121.6 32.0469 118L32.8469 131.2C23.1135 129.6 15.8469 126.2 11.0469 121C6.24688 115.8 3.84688 109.067 3.84688 100.8C3.84688 94.6667 5.18021 89.1333 7.84688 84.2C10.6469 79.2667 14.5802 75.4 19.6469 72.6C24.7135 69.6667 30.5802 68.2 37.2469 68.2C41.6469 68.2 45.9135 68.8667 50.0469 70.2C54.3135 71.4 57.9802 73.1333 61.0469 75.4L58.6469 96.6C55.7135 95.8 52.9135 95.2 50.2469 94.8C47.5802 94.2667 44.5135 94 41.0469 94C34.7802 94 30.0469 94.8667 26.8469 96.6C23.7802 98.2 22.2469 100.667 22.2469 104C22.2469 107.067 23.6469 109.533 26.4469 111.4C29.2469 113.133 33.5135 114 39.2469 114C42.8469 114 46.7802 113.667 51.0469 113C55.4469 112.2 60.7802 111.067 67.0469 109.6L70.4469 135C47.6469 139.8 26.7135 145.067 7.64688 150.8L0.646875 128.8ZM265.709 145.4C256.643 145.4 249.243 144.067 243.509 141.4C237.909 138.6 233.709 134.267 230.909 128.4C228.109 122.4 226.509 114.6 226.109 105L222.109 10L249.509 0.799995L250.709 96.6C250.843 100.467 251.443 103.467 252.509 105.6C253.576 107.733 255.376 109.267 257.909 110.2C260.576 111.133 264.309 111.6 269.109 111.6C271.776 111.6 273.776 113.4 275.109 117C276.443 120.6 277.109 124.933 277.109 130C277.109 134.667 275.976 138.4 273.709 141.2C271.576 144 268.909 145.4 265.709 145.4ZM395.694 145.4C393.694 145.4 392.16 144.067 391.094 141.4C390.027 138.6 389.494 134.467 389.494 129C389.494 125.933 389.96 123.067 390.894 120.4C391.694 117.733 392.827 115.6 394.294 114C395.76 112.4 397.36 111.6 399.094 111.6C404.294 111.6 408.827 111.467 412.694 111.2C416.56 110.933 420.427 110.533 424.294 110C424.56 101.2 424.76 92.4667 424.894 83.8C425.027 82.0667 425.094 80.4 425.094 78.8L449.694 75.6L448.894 85.8C447.96 95.4 446.894 103.4 445.694 109.8C444.627 116.067 443.227 121.333 441.494 125.6C438.694 132.533 433.56 137.6 426.094 140.8C418.76 143.867 408.627 145.4 395.694 145.4ZM465.694 145.4C458.227 145.4 450.894 143.933 443.694 141C436.627 137.933 430.894 133.133 426.494 126.6L440.894 106C444.494 108 448.894 109.467 454.094 110.4C459.294 111.2 464.294 111.6 469.094 111.6C471.36 111.6 472.96 113 473.894 115.8C474.827 118.467 475.294 122.467 475.294 127.8C475.294 132.067 474.294 136.067 472.294 139.8C470.294 143.533 468.094 145.4 465.694 145.4ZM425.494 192.6C419.094 186.867 412.694 181.133 406.294 175.4L423.094 155.6C426.294 158.267 432.627 163.8 442.094 172.2L425.494 192.6ZM452.094 192.6C445.694 186.867 439.294 181.133 432.894 175.4L449.694 155.6C452.894 158.267 459.227 163.8 468.694 172.2L452.094 192.6ZM660.616 145.4C653.016 145.4 646.216 144.533 640.216 142.8C634.349 141.067 629.416 138.4 625.416 134.8L638.216 105.2C641.282 107.067 644.749 108.6 648.616 109.8C652.616 111 658.282 111.6 665.616 111.6C668.682 111.6 671.549 111.467 674.216 111.2C676.882 110.8 679.349 110.267 681.616 109.6C682.282 105.733 682.949 100.333 683.616 93.4C684.149 89 684.616 84.6667 685.016 80.4L703.216 79.6C702.549 88.4 701.749 96.1333 700.816 102.8C699.882 109.467 698.616 115.6 697.016 121.2C695.416 126.8 693.349 131.467 690.816 135.2C688.549 138.533 684.416 141.067 678.416 142.8C672.549 144.533 666.616 145.4 660.616 145.4ZM595.616 145.4C593.882 145.4 592.416 143.867 591.216 140.8C590.016 137.733 589.416 133.667 589.416 128.6C589.416 123.4 590.349 119.267 592.216 116.2C593.949 113.133 596.216 111.6 599.016 111.6C605.682 111.6 611.216 111.267 615.616 110.6C620.149 109.933 623.549 108.667 625.816 106.8C627.416 105.467 628.882 102.933 630.216 99.2C631.549 95.3333 633.149 90 635.016 83.2L652.216 82.4C650.216 92.8 648.149 101.333 646.016 108C644.016 114.533 641.949 119.733 639.816 123.6C637.682 127.333 635.216 130.533 632.416 133.2C627.749 137.6 622.549 140.733 616.816 142.6C611.082 144.467 604.016 145.4 595.616 145.4ZM719.416 145.4C711.016 145.4 703.682 143.933 697.416 141C691.149 138.067 685.482 133.667 680.416 127.8L692.616 103C696.482 105.933 700.482 108.133 704.616 109.6C708.882 110.933 713.482 111.6 718.416 111.6C720.949 111.6 723.416 111.4 725.816 111C728.349 110.6 730.549 109.933 732.416 109C731.482 103.933 730.349 98.7333 729.016 93.4C727.682 88.0667 726.216 82.5333 724.616 76.8L746.016 67.8C747.616 73.6667 748.749 79.6 749.416 85.6C750.216 91.4667 750.616 97.9333 750.616 105C750.616 116.467 747.816 126.067 742.216 133.8C736.616 141.533 729.016 145.4 719.416 145.4ZM694.416 36.2C691.082 33 687.682 29.8667 684.216 26.8L677.816 20.6L692.216 2.4C696.482 6.13333 701.949 11.2 708.616 17.6L694.416 36.2ZM683.016 65.2C672.882 56.1333 667.016 50.8667 665.416 49.4L680.816 31C684.682 34.3333 688.482 37.6667 692.216 41L698.216 46.4L683.016 65.2ZM707.416 65.2C697.282 56.1333 691.416 50.8667 689.816 49.4L705.216 31C709.082 34.3333 712.882 37.6667 716.616 41L722.616 46.4L707.416 65.2ZM902.581 142.8L900.781 10L928.181 0.799995L928.781 106.8C928.781 114.267 927.915 121.267 926.181 127.8C924.581 134.333 922.381 140 919.581 144.8L902.581 142.8Z" fill="#141414"/>
</svg>
