<svg width="748" height="204" viewBox="0 0 748 204" fill="none" xmlns="http://www.w3.org/2000/svg">
<path d="M59.8188 155.4C47.1521 155.4 36.3521 153.733 27.4188 150.4C18.6188 146.933 11.8854 141.8 7.21875 135C2.68542 128.2 0.41875 119.867 0.41875 110C0.41875 103.467 1.01875 97.0667 2.21875 90.8C3.55208 84.5333 5.08542 79.0667 6.81875 74.4L24.2188 78.2C23.2854 82.0667 22.5521 85.5333 22.0188 88.6C21.6188 91.5333 21.4188 95.0667 21.4188 99.2C21.4188 104.667 22.7521 109 25.4188 112.2C28.0854 115.4 32.5521 117.733 38.8188 119.2C45.2188 120.667 54.0188 121.4 65.2188 121.4C76.8188 121.4 87.6188 120.933 97.6188 120C107.752 118.933 117.285 117.467 126.219 115.6C125.285 109.467 123.952 103.267 122.219 97C120.619 90.7333 118.685 84.6667 116.419 78.8L143.619 66.4C145.752 72.4 147.419 78.9333 148.619 86C149.819 92.9333 150.419 99.4 150.419 105.4C150.419 118.6 146.752 128.867 139.419 136.2C132.085 143.533 121.885 148.6 108.819 151.4C95.7521 154.067 79.4188 155.4 59.8188 155.4ZM61.8188 84C55.4188 78.2667 49.0188 72.5333 42.6188 66.8L59.4188 47C62.6188 49.5333 68.9521 55.0667 78.4188 63.6L61.8188 84ZM88.4188 84C82.0188 78.2667 75.6188 72.5333 69.2188 66.8L86.0188 47C89.2188 49.5333 95.5521 55.0667 105.019 63.6L88.4188 84ZM282.625 203.4C277.292 203.4 272.492 202.933 268.225 202C264.092 201.067 260.092 199.467 256.225 197.2V172C261.425 172.4 265.892 172.6 269.625 172.6C278.425 172.6 286.158 171.4 292.825 169C299.625 166.6 305.025 163 309.025 158.2C313.025 153.533 315.292 147.8 315.825 141C313.425 134.467 310.558 128.2 307.225 122.2C304.025 116.067 299.492 108.2 293.625 98.6L317.825 82C324.625 94.5333 329.758 105.8 333.225 115.8C336.692 125.667 338.425 135.2 338.425 144.4C338.425 154.933 335.892 164.733 330.825 173.8C325.892 182.867 319.158 190.067 310.625 195.4C302.092 200.733 292.758 203.4 282.625 203.4ZM556.809 155.4C550.543 155.4 545.409 154.667 541.409 153.2C537.409 151.867 534.076 149.8 531.409 147C528.876 144.067 526.409 140.2 524.009 135.4C519.476 125.533 514.943 115.667 510.409 105.8C503.343 89.1333 497.943 75.9333 494.209 66.2L521.409 52.8C525.009 64.1333 528.609 75.5333 532.209 87C534.476 93.9333 536.543 100.2 538.409 105.8C540.276 111.267 541.543 114.733 542.209 116.2C543.276 118.333 545.076 119.8 547.609 120.6C550.276 121.267 554.476 121.6 560.209 121.6C562.209 121.6 563.743 123 564.809 125.8C565.876 128.6 566.409 132.933 566.409 138.8C566.409 143.067 565.409 146.933 563.409 150.4C561.543 153.733 559.343 155.4 556.809 155.4ZM486.209 155.4C476.743 155.4 469.543 153.067 464.609 148.4C459.809 143.6 457.409 136.867 457.409 128.2C457.409 123.267 457.876 118.267 458.809 113.2L470.409 112.2C470.676 114.733 471.276 116.733 472.209 118.2C473.276 119.533 474.876 120.533 477.009 121.2C479.143 121.867 481.943 122.2 485.409 122.2C491.809 122.2 499.076 121.533 507.209 120.2C515.343 118.867 522.543 117 528.809 114.6L532.809 134.4C526.943 140.933 520.076 146.067 512.209 149.8C504.476 153.533 495.809 155.4 486.209 155.4ZM660.78 155.4C658.646 155.4 657.113 154.067 656.18 151.4C655.113 148.6 654.58 144.333 654.58 138.6C654.58 134.2 654.98 130.8 655.78 128.4C656.446 125.867 657.513 124.133 658.98 123.2C660.313 122.133 662.046 121.6 664.18 121.6H671.78C682.98 121.6 691.046 121.467 695.98 121.2C702.913 120.8 709.18 120.267 714.78 119.6C720.38 118.933 725.846 117.933 731.18 116.6C731.046 113.4 730.98 111 730.98 109.4C730.98 107.8 730.913 105.467 730.78 102.4L728.98 99.8C728.713 94.8667 727.446 90.7333 725.18 87.4C723.046 83.9333 720.313 81.3333 716.98 79.6C713.78 77.8667 710.313 77 706.58 77C702.046 77 698.446 78 695.78 80C693.113 82 691.78 84.4 691.78 87.2C691.78 89.7333 692.913 91.5333 695.18 92.6C697.446 93.6667 701.58 94.2 707.58 94.2C711.846 94.2 715.913 93.8 719.78 93C723.78 92.2 729.18 90.8667 735.98 89L737.18 104.8C731.98 108.133 726.646 110.533 721.18 112C715.713 113.333 709.846 114 703.58 114C696.513 114 690.846 113 686.58 111C682.446 109 679.446 106.133 677.58 102.4C675.846 98.5333 674.98 93.6667 674.98 87.8C674.98 80.7333 676.313 74.0667 678.98 67.8C681.78 61.4 685.713 56.2667 690.78 52.4C695.98 48.4 701.98 46.4 708.78 46.4C715.98 46.4 722.513 48.7333 728.38 53.4C734.246 57.9333 738.913 64.5333 742.38 73.2C745.846 81.7333 747.58 91.8 747.58 103.4C747.58 113.667 746.246 122 743.58 128.4C740.913 134.667 737.113 139.533 732.18 143C728.18 145.8 722.846 148.133 716.18 150C709.646 151.733 702.313 153.067 694.18 154C686.713 154.933 675.58 155.4 660.78 155.4ZM696.58 37.2C690.18 31.4667 683.78 25.7333 677.38 20L694.18 0.199988C697.38 2.73332 703.713 8.26665 713.18 16.8L696.58 37.2ZM723.18 37.2C716.78 31.4667 710.38 25.7333 703.98 20L720.78 0.199988C723.98 2.73332 730.313 8.26665 739.78 16.8L723.18 37.2Z" fill="#141414"/>
</svg>
